<svg xmlns="http://www.w3.org/2000/svg" viewBox="0 0 268.56 268.56"><defs><style>.cls-1{fill:#325c47;}</style></defs><g id="Capa_2" data-name="Capa 2"><g id="Capa_1-2" data-name="Capa 1"><path class="cls-1" d="M134.28,0A134.28,134.28,0,1,0,268.56,134.28,134.28,134.28,0,0,0,134.28,0Zm0,255.6A121.32,121.32,0,1,1,255.6,134.28,121.32,121.32,0,0,1,134.28,255.6Z"/><rect class="cls-1" x="133.41" y="67" width="1.73" height="19.08"/><rect class="cls-1" x="127.85" y="71.94" width="12.85" height="1.73"/><path class="cls-1" d="M191.57,131H178.26V116H165.14V99.89H151.62V84.38h-33.7V99.94H106.4v16.13H94.3v15H81.05v39.52L34.51,156.7l-18.57,5.53A121.27,121.27,0,0,0,226.2,213.82L191.57,203.5Zm-83.82,2.75a10.14,10.14,0,0,1,20.28,0v30H107.75Zm33.82,0a10.14,10.14,0,0,1,20.28,0v30H141.57Z"/></g></g></svg>