<svg id="Componente_11_1" data-name="Componente 11 – 1" xmlns="http://www.w3.org/2000/svg" width="1106.321" height="330.352" viewBox="0 0 1106.321 330.352">
  <g id="Grupo_640" data-name="Grupo 640" transform="translate(133.802)">
    <path id="Trazado_929" data-name="Trazado 929" d="M488,1368.117c-7.405,17.468-26.036,26.273-26.036,26.273s-6.624-19.513.782-36.98,26.036-26.273,26.036-26.273S495.4,1350.65,488,1368.117Z" transform="translate(-378.776 -1300.63)" fill="#325b45"/>
    <path id="Trazado_930" data-name="Trazado 930" d="M541.005,1471.971c-10.2,16-30.032,21.593-30.032,21.593s-3.3-20.341,6.9-36.339,30.032-21.593,30.032-21.593S551.2,1455.973,541.005,1471.971Z" transform="translate(-392.441 -1328.503)" fill="#325b45"/>
    <path id="Trazado_931" data-name="Trazado 931" d="M383.18,1304.839c13.129,13.7,13.872,34.289,13.872,34.289s-20.544-1.611-33.673-15.307-13.872-34.289-13.872-34.289S370.051,1291.144,383.18,1304.839Z" transform="translate(-349.507 -1289.532)" fill="#325b45"/>
    <path id="Trazado_932" data-name="Trazado 932" d="M404.818,1399.4c18.972.21,34.2,14.094,34.2,14.094s-15.531,13.544-34.5,13.335-34.2-14.094-34.2-14.094S385.847,1399.194,404.818,1399.4Z" transform="translate(-355.058 -1318.839)" fill="#325b45"/>
    <path id="Trazado_933" data-name="Trazado 933" d="M451.749,1494.827c18.971.21,34.2,14.094,34.2,14.094s-15.53,13.545-34.5,13.335-34.2-14.094-34.2-14.094S432.778,1494.617,451.749,1494.827Z" transform="translate(-367.576 -1344.293)" fill="#325b45"/>
    <g id="Grupo_534" data-name="Grupo 534" transform="translate(36.243 37.791)">
      <path id="Trazado_934" data-name="Trazado 934" d="M516.7,1617.966l-3.861.162c-.018-.448-2.055-45.409-17.1-101.458-8.825-32.881-20.335-63.091-34.209-89.788-17.312-33.312-38.375-61.215-62.6-82.933l2.579-2.877c24.588,22.04,45.944,50.328,63.477,84.077,14,26.957,25.615,57.442,34.511,90.608C514.639,1572.2,516.684,1617.515,516.7,1617.966Z" transform="translate(-398.934 -1341.071)" fill="#325b45"/>
    </g>
  </g>
  <g id="Grupo_641" data-name="Grupo 641" transform="translate(0 119.664)">
    <path id="Trazado_935" data-name="Trazado 935" d="M301.113,1479.048c1.907,15.3-7.606,29.079-7.606,29.079S280.9,1497.1,279,1481.806s7.606-29.078,7.606-29.078S299.207,1463.75,301.113,1479.048Z" transform="translate(-196.829 -1452.728)" fill="#325b45"/>
    <path id="Trazado_936" data-name="Trazado 936" d="M381.07,1529.311c-.656,15.4-12.322,27.415-12.322,27.415s-10.6-12.96-9.947-28.363,12.322-27.414,12.322-27.414S381.727,1513.909,381.07,1529.311Z" transform="translate(-218.176 -1465.591)" fill="#325b45"/>
    <path id="Trazado_937" data-name="Trazado 937" d="M196.941,1480.056c14.81,4.282,23.719,18.46,23.719,18.46s-15.1,7.234-29.911,2.952-23.719-18.46-23.719-18.46S182.131,1475.774,196.941,1480.056Z" transform="translate(-167.03 -1459.656)" fill="#325b45"/>
    <path id="Trazado_938" data-name="Trazado 938" d="M252.648,1532.425c13.425-7.58,29.787-4.019,29.787-4.019s-5.4,15.849-18.829,23.428-29.786,4.019-29.786,4.019S239.223,1540,252.648,1532.425Z" transform="translate(-184.846 -1472.692)" fill="#325b45"/>
    <path id="Trazado_939" data-name="Trazado 939" d="M324.512,1580.407c13.424-7.58,29.787-4.019,29.787-4.019s-5.4,15.849-18.829,23.428-29.786,4.019-29.786,4.019S311.087,1587.986,324.512,1580.407Z" transform="translate(-204.015 -1485.491)" fill="#325b45"/>
    <g id="Grupo_536" data-name="Grupo 536" transform="translate(42.048 34.112)">
      <path id="Trazado_940" data-name="Trazado 940" d="M418.787,1647.03l-2.649,1.687c-.2-.307-19.939-31.092-53.345-64.375-19.6-19.527-39.994-36.08-60.623-49.2-25.741-16.373-51.916-27.413-77.8-32.817l.642-3.074c26.265,5.483,52.8,16.675,78.876,33.264,20.826,13.251,41.406,29.957,61.17,49.655C398.7,1615.692,418.591,1646.722,418.787,1647.03Z" transform="translate(-224.374 -1499.25)" fill="#325b45"/>
    </g>
  </g>
  <g id="Grupo_642" data-name="Grupo 642" transform="translate(102.767 246.266)">
    <path id="Trazado_941" data-name="Trazado 941" d="M368.581,1676.592a63.872,63.872,0,0,0-61.4,46.288h122.8A63.873,63.873,0,0,0,368.581,1676.592Z" transform="translate(-307.182 -1639.044)" fill="none" stroke="#fff" stroke-width="0.5"/>
    <path id="Trazado_942" data-name="Trazado 942" d="M766.16,1646.727a94.091,94.091,0,0,0-90.448,68.187h180.9A94.09,94.09,0,0,0,766.16,1646.727Z" transform="translate(-405.485 -1631.078)" fill="none" stroke="#fff" stroke-width="0.5"/>
    <path id="Trazado_943" data-name="Trazado 943" d="M416.251,1709.221c13.87-47.991,68.83-83.836,134.525-83.836s120.656,35.845,134.525,83.836Z" transform="translate(-336.275 -1625.385)" fill="none" stroke="#fff" stroke-width="0.5"/>
  </g>
  <g id="Grupo_644" data-name="Grupo 644" transform="translate(-506.149 -969.898)">
    <g id="Grupo_643" data-name="Grupo 643" transform="translate(-706 -458.088)">
      <path id="Trazado_1015" data-name="Trazado 1015" d="M2246.243,1720.636s1.339-15.4-17.274-20.889-18.345-21.826-5.356-23.433S2250.26,1696.533,2246.243,1720.636Z" fill="none" stroke="#fff" stroke-width="0.5"/>
      <path id="Trazado_1016" data-name="Trazado 1016" d="M2257.432,1720.636s-2.553-29.356,32.93-39.823,34.973-41.609,10.211-44.673S2249.774,1674.687,2257.432,1720.636Z" fill="none" stroke="#fff" stroke-width="0.5"/>
    </g>
    <path id="Trazado_1124" data-name="Trazado 1124" d="M2317.491,1758.088c-2.593-26.645-30.8-47.628-65.223-47.628s-62.63,20.983-65.223,47.628Z" transform="translate(-706 -458.088)" fill="#325b45"/>
  </g>
</svg>
