<svg id="Grupo_42" data-name="Grupo 42" xmlns="http://www.w3.org/2000/svg" width="76.378" height="92.051" viewBox="0 0 76.378 92.051">
  <g id="Grupo_39" data-name="Grupo 39" transform="translate(0 10.34)">
    <path id="Trazado_83" data-name="Trazado 83" d="M731.89,336.974v-49.4h-9.055v-10.2h-8.927V266.408h-9.2V255.855H681.191v10.583h-7.839v10.975h-8.231V287.6H656.1v49.371Zm-43.82-27.128h-13.21v-20.1a6.6,6.6,0,0,1,13.21,0Zm23.01,0h-13.21v-20.1a6.6,6.6,0,0,1,13.21,0Z" transform="translate(-655.809 -255.56)" fill="#fff"/>
    <path id="Trazado_84" data-name="Trazado 84" d="M731.983,337.067H655.6V287.1h9.016V276.913h8.231V265.938h7.839V255.356H704.8v10.553H714v10.967h8.927v10.2h9.055Zm-75.786-.592h75.194v-48.8h-9.055v-10.2h-8.927V266.5h-9.2V255.948H681.282V266.53h-7.839v10.975h-8.231V287.7H656.2Zm54.976-26.536h-13.8v-20.4a6.9,6.9,0,0,1,13.8,0Zm-13.209-.592h12.618v-19.8a6.309,6.309,0,0,0-12.618,0Zm-9.8.592h-13.8v-20.4a6.9,6.9,0,1,1,13.8,0Zm-13.209-.592H687.57v-19.8a6.309,6.309,0,1,0-12.617,0Z" transform="translate(-655.605 -255.356)" fill="#fff"/>
  </g>
  <g id="Grupo_40" data-name="Grupo 40" transform="translate(36.055 0)">
    <rect id="Rect치ngulo_19" data-name="Rect치ngulo 19" width="1.184" height="13.019" fill="#fff"/>
  </g>
  <g id="Grupo_41" data-name="Grupo 41" transform="translate(32.261 3.372)">
    <rect id="Rect치ngulo_20" data-name="Rect치ngulo 20" width="8.77" height="1.184" fill="#fff"/>
  </g>
</svg>
