<svg xmlns="http://www.w3.org/2000/svg" width="28.733" height="44.523" viewBox="0 0 28.733 44.523">
  <g id="Grupo_652" data-name="Grupo 652" transform="translate(-327.082 -538.375)">
    <path id="Trazado_1148" data-name="Trazado 1148" d="M332.406,582.9a1.452,1.452,0,0,1-.86-1.92q1.131-5.978,2.282-11.952a1.741,1.741,0,0,1,.081-.234l2.482.99-.655,3.452h11.421l-.651-3.452,2.5-1c.145.725.293,1.441.43,2.158q.975,5.1,1.945,10.209c.162.85-.022,1.219-.888,1.748h-.7a1.729,1.729,0,0,1-1.061-1.453c-.322-1.831-.7-3.652-1.05-5.475H335.212c-.357,1.844-.73,3.655-1.05,5.475a1.728,1.728,0,0,1-1.06,1.453Z" fill="#fff"/>
    <path id="Trazado_1149" data-name="Trazado 1149" d="M355.815,554.769a14.425,14.425,0,0,1-28.733,0Z" fill="#fff"/>
    <path id="Trazado_1150" data-name="Trazado 1150" d="M343.8,541.731a4.889,4.889,0,0,1-1.208,3.245,6.612,6.612,0,0,0-.6.794,1.507,1.507,0,0,0,.15,1.846,3.263,3.263,0,0,1,.579.946,1.243,1.243,0,0,1-.643,1.431,1.335,1.335,0,0,1-1.594-.249,4.314,4.314,0,0,1-.2-6.159,5.616,5.616,0,0,0,.6-.791,1.49,1.49,0,0,0-.16-1.878,1.822,1.822,0,0,1-.6-1.166,1.264,1.264,0,0,1,.74-1.224,1.216,1.216,0,0,1,1.451.2A4.185,4.185,0,0,1,343.8,541.731Z" fill="#fff"/>
    <path id="Trazado_1151" data-name="Trazado 1151" d="M333.093,546.52a4.743,4.743,0,0,1,1.206-2.946,6.251,6.251,0,0,0,.636-.872,1.489,1.489,0,0,0-.178-1.769,2.956,2.956,0,0,1-.589-1.03,1.218,1.218,0,0,1,.72-1.388,1.33,1.33,0,0,1,1.549.31,4.307,4.307,0,0,1,.208,6.1,7.514,7.514,0,0,0-.59.748,1.51,1.51,0,0,0,.136,1.987,1.777,1.777,0,0,1,.573,1.175,1.248,1.248,0,0,1-.773,1.2,1.205,1.205,0,0,1-1.38-.186A4.331,4.331,0,0,1,333.093,546.52Z" fill="#fff"/>
    <path id="Trazado_1152" data-name="Trazado 1152" d="M349.8,541.682a4.9,4.9,0,0,1-1.186,3.264c-.163.2-.343.394-.492.607a1.56,1.56,0,0,0,.082,2.131,1.717,1.717,0,0,1,.552,1.139,1.316,1.316,0,0,1-2.214.976,4.254,4.254,0,0,1-.621-5.732c.224-.319.485-.612.728-.917a1.651,1.651,0,0,0,0-2.346,2.518,2.518,0,0,1-.495-1.02,1.136,1.136,0,0,1,.719-1.26,1.215,1.215,0,0,1,1.45.209A4.186,4.186,0,0,1,349.8,541.682Z" fill="#fff"/>
  </g>
</svg>
