<svg xmlns="http://www.w3.org/2000/svg" width="42.522" height="42.535" viewBox="0 0 42.522 42.535">
  <g id="Grupo_654" data-name="Grupo 654" transform="translate(478.151 -66.946)">
    <path id="Trazado_1157" data-name="Trazado 1157" d="M-478.151,96.008V75.249a.84.84,0,0,0,.078-.183,6.1,6.1,0,0,1,2.272-3.874,17.141,17.141,0,0,1,6.666-3,40.529,40.529,0,0,1,7.361-1.091c.631-.04,1.26-.1,1.89-.158h5.978a5.573,5.573,0,0,0,.566.08,42.468,42.468,0,0,1,9.05,1.259,17.363,17.363,0,0,1,5.982,2.656,5.965,5.965,0,0,1,2.655,4.92c.038,6.531.021,13.062.011,19.594a4.925,4.925,0,0,1-4.74,4.783c-2.961.025-5.922.009-8.883.01h-.531v.533q0,3.8,0,7.6c0,.405.027.827-.44,1.025s-.752-.093-1.036-.393c-.435-.46-.877-.914-1.348-1.4-.524.531-1,1.014-1.475,1.491-.512.512-.833.515-1.338.005-.475-.479-.941-.966-1.454-1.494-.531.542-1.008,1.039-1.5,1.524-.47.467-.808.464-1.279-.008-.488-.488-.968-.982-1.464-1.486-.137.13-.237.222-.333.317q-.632.63-1.262,1.262a.717.717,0,0,1-.795.2.709.709,0,0,1-.471-.712c0-.138,0-.277,0-.415q0-3.757,0-7.514v-.531h-.533c-2.92,0-5.84.02-8.759-.01a4.646,4.646,0,0,1-4.119-2.366A11.867,11.867,0,0,1-478.151,96.008ZM-464.862,96a7.4,7.4,0,0,0-1.41-2.145,1.623,1.623,0,0,0-1.578-.677,2.046,2.046,0,0,1-.456,0,2.146,2.146,0,0,1-1.917-2.907,2.208,2.208,0,0,1,2.246-1.378q11.084,0,22.168,0c.1,0,.194,0,.29,0a2.143,2.143,0,0,1,2.077,1.938,2.1,2.1,0,0,1-1.8,2.309c-.391.065-.8,0-1.2.046a.959.959,0,0,0-.582.224c-.549.616-1.068,1.259-1.576,1.91a3.724,3.724,0,0,0-.33.676h7.919c.931,0,1.116-.185,1.116-1.118,0-6.075-.02-12.15.017-18.224a2.679,2.679,0,0,0-1.458-2.616c-.194-.106-.379-.228-.574-.331a18.978,18.978,0,0,0-5.619-1.78,54.416,54.416,0,0,0-10.328-.705,45.641,45.641,0,0,0-10,1.04,15.23,15.23,0,0,0-4.824,1.91,2.522,2.522,0,0,0-1.232,2.322c.019,6.13.009,12.26.01,18.39,0,.111,0,.222,0,.332a.718.718,0,0,0,.786.775C-470.383,96-467.657,96-464.862,96Zm15.149,2.8a2.328,2.328,0,0,0,.252.032c2.961,0,5.923.025,8.884-.009a3.513,3.513,0,0,0,3.517-3.6q.023-9.569,0-19.137A4.723,4.723,0,0,0-439,72.22a13.155,13.155,0,0,0-3.726-1.954,35.493,35.493,0,0,0-10.826-1.8c-2.582-.084-5.172-.015-7.756.065a35.389,35.389,0,0,0-7.252,1,17.164,17.164,0,0,0-5.927,2.464,4.99,4.99,0,0,0-2.251,4.331q.006,9.34.007,18.681a4.773,4.773,0,0,0,.128,1.148,3.506,3.506,0,0,0,3.5,2.681c2.892.011,5.784,0,8.676,0,.095,0,.189-.011.341-.02-.059-.344-.135-.662-.164-.985s-.187-.416-.51-.414c-2.781.013-5.563.009-8.344.006a2.119,2.119,0,0,1-2.224-2.209q0-9.527,0-19.054a3.428,3.428,0,0,1,1.359-2.806,11.229,11.229,0,0,1,3.169-1.684,34.643,34.643,0,0,1,10.075-1.8,67,67,0,0,1,8.5.059,39.34,39.34,0,0,1,6.874,1.015,15.288,15.288,0,0,1,5.3,2.246,3.575,3.575,0,0,1,1.578,3.074q-.008,9.444,0,18.888a2.591,2.591,0,0,1-.049.576,2.1,2.1,0,0,1-2.117,1.691c-2.809,0-5.618,0-8.427.01-.145,0-.388.089-.418.188A10.811,10.811,0,0,0-449.713,98.8Zm-7.184-8.448h-10.955c-.138,0-.277-.005-.415,0a.689.689,0,0,0-.667.663.688.688,0,0,0,.629.7,3.139,3.139,0,0,0,.414.017H-445.9a2.86,2.86,0,0,0,.455-.025.685.685,0,0,0,.586-.694.69.69,0,0,0-.629-.657c-.137-.013-.276-.007-.415-.007Zm-2.495,8.558c.56-.565,1.067-1.055,1.544-1.574a.885.885,0,0,0,.213-.538c.02-1.037.01-2.075.01-3.112v-.489h-3.046a1.12,1.12,0,0,0,.011.136,5.822,5.822,0,0,1-.187,3.855.326.326,0,0,0,.07.283C-460.335,97.941-459.88,98.4-459.391,98.907Zm3.228-5.712c0,1.287,0,2.531,0,3.775a.348.348,0,0,0,.075.224c.549.558,1.105,1.109,1.69,1.692.475-.483.93-.926,1.356-1.4a.586.586,0,0,0,.042-.426,14.213,14.213,0,0,1-.343-1.855,14.866,14.866,0,0,1,.175-2.014Zm-8.79-.015a10.131,10.131,0,0,1,2.085,4.185,2.156,2.156,0,0,0,.91-1.295,4.7,4.7,0,0,0-.211-2.684.355.355,0,0,0-.252-.2C-463.232,93.173-464.044,93.179-464.953,93.179Zm14.04,4.19a10.03,10.03,0,0,1,2.071-4.191h-1.624c-1.19,0-1.227-.005-1.4,1.177A2.825,2.825,0,0,0-450.913,97.37Zm-11.633,9.59,2.45-2.448-1.441-1.445c-.284.288-.588.588-.882.9a.414.414,0,0,0-.121.246C-462.549,105.106-462.546,106-462.546,106.96Zm8.927-2.54,2.376,2.39c0-.8,0-1.666,0-2.536a.433.433,0,0,0-.08-.264c-.3-.34-.606-.667-.9-.986Zm-3.209-5.86-1.367,1.374,1.278,1.312,1.369-1.375Zm-5.757,3.4,2.063-2.059-1.4-1.442c-.218.263-.607.519-.635.809C-462.639,100.149-462.585,101.047-462.585,101.958Zm11.347.011a17.693,17.693,0,0,1,.02-2.174,1.322,1.322,0,0,0-.691-1.3l-1.4,1.4Zm-9.159.025,1.336,1.35,1.042-.98L-459.377,101Zm5.587,1.386,1.37-1.3-.964-1.042-1.39,1.361Zm-3.1,1.076.979,1.029,1.059-1-1.02-1.057Zm-2.179,2.167,1.047,1.009.995-.978-.951-1.067Zm5.31,1,1-.963-1.012-1.032-1.05,1Z" fill="#fff"/>
    <path id="Trazado_1158" data-name="Trazado 1158" d="M-349.074,153.332q-2.781,0-5.562,0a2.128,2.128,0,0,1-2.239-2.239q0-2.739,0-5.479a2.139,2.139,0,0,1,2.219-2.227q5.583-.012,11.166,0a2.138,2.138,0,0,1,2.219,2.227q.006,2.76,0,5.521a2.125,2.125,0,0,1-2.2,2.2C-345.338,153.336-347.206,153.332-349.074,153.332Zm0-8.49q-2.717,0-5.434,0c-.721,0-.936.216-.938.941q0,2.572,0,5.143c0,.741.231.975.963.976q5.413,0,10.826,0c.729,0,.958-.236.959-.98q0-2.572,0-5.144c0-.72-.22-.936-.943-.937Q-346.359,144.841-349.076,144.843Z" transform="translate(-107.821 -67.956)" fill="#fff"/>
  </g>
</svg>
