<svg xmlns="http://www.w3.org/2000/svg" width="36.646" height="26.897" viewBox="0 0 36.646 26.897">
  <path id="Trazado_1156" data-name="Trazado 1156" d="M155.532,215.889a1.05,1.05,0,0,1-.991.491q-17.338-.009-34.677-.005c-.743,0-.977-.239-.977-.988q0-12.456,0-24.912c0-.75.232-.987.977-.987q17.338,0,34.677-.005a1.041,1.041,0,0,1,.991.491Zm-17.569-24.915a.467.467,0,0,0-.034.113c0,1.837-.006,3.674.007,5.512,0,.084.15.225.247.241a6.162,6.162,0,0,1,0,12.167c-.257.039-.265.162-.264.358q.006,2.559,0,5.118v.4h16.156v-5.51h-.406q-2.2,0-4.4,0c-.6,0-.881-.273-.881-.871q0-5.565,0-11.131a.764.764,0,0,1,.874-.878q2.219,0,4.437,0h.373v-5.517Zm-17.634,23.9H136.47v-5.8a.757.757,0,0,0-.121-.045,6.158,6.158,0,0,1-.195-12.164c.28-.042.347-.13.345-.4-.011-1.73-.005-3.46-.007-5.19,0-.1-.013-.2-.019-.3H120.335v5.512H125.1c.664,0,.924.261.924.937q0,5.494,0,10.988c0,.7-.251.955-.942.956h-4.756Zm.007-16.927v9.963h4.2v-9.963Zm29.545,0v9.963h4.2v-9.963Zm-13.4.341a4.709,4.709,0,0,0-3.987,4.855c.152,2.281,2.058,4.388,3.987,4.4Zm1.457,9.283a4.692,4.692,0,0,0,0-9.278Z" transform="translate(-118.886 -189.484)" fill="#fff"/>
</svg>
