<svg xmlns="http://www.w3.org/2000/svg" width="39.966" height="31.578" viewBox="0 0 39.966 31.578">
  <g id="Grupo_649" data-name="Grupo 649" transform="translate(-108.639 -160.035)">
    <path id="Trazado_1131" data-name="Trazado 1131" d="M148.605,432.3a1.2,1.2,0,0,1-1.019.51,2.872,2.872,0,0,0-1.68.63,4.74,4.74,0,0,1-5.255.368c-.233-.142-.459-.295-.686-.445a2.943,2.943,0,0,0-3.521,0,5.306,5.306,0,0,1-2.094.976,4.67,4.67,0,0,1-3.365-.582c-.208-.132-.413-.27-.619-.405a2.931,2.931,0,0,0-3.489,0,5.386,5.386,0,0,1-2.091.982,4.68,4.68,0,0,1-3.4-.591c-.208-.132-.409-.276-.617-.409a2.935,2.935,0,0,0-3.456.007,5.444,5.444,0,0,1-2.085.988,4.544,4.544,0,0,1-3.529-.664,4.353,4.353,0,0,0-2.395-.912.758.758,0,0,1-.662-.9.788.788,0,0,1,.765-.733,4.315,4.315,0,0,1,2.738.824,3.979,3.979,0,0,0,1.637.763,2.978,2.978,0,0,0,1.807-.289,4.691,4.691,0,0,0,.762-.467,4.72,4.72,0,0,1,5.459.042,3.42,3.42,0,0,0,1.53.712,2.966,2.966,0,0,0,2.212-.5,5.34,5.34,0,0,1,2.2-1.021,4.663,4.663,0,0,1,3.255.567c.276.17.537.365.814.532a2.858,2.858,0,0,0,3.188,0,6.154,6.154,0,0,1,2.332-1.1,4.668,4.668,0,0,1,3.288.594c.242.152.474.319.716.47a2.867,2.867,0,0,0,3.289,0A5.779,5.779,0,0,1,147,431.168a2.522,2.522,0,0,1,.965-.013c.242.069.426.338.636.518Z" transform="translate(0 -242.811)" fill="#fff"/>
    <path id="Trazado_1132" data-name="Trazado 1132" d="M148.61,392.864a1.458,1.458,0,0,1-1.158.56,3.645,3.645,0,0,0-1.3.46,7.31,7.31,0,0,1-2.083,1.02,4.636,4.636,0,0,1-3.518-.572c-.254-.157-.493-.339-.749-.492a2.907,2.907,0,0,0-3.234.03,6.474,6.474,0,0,1-2.114,1.041,4.62,4.62,0,0,1-3.413-.539c-.256-.153-.5-.333-.75-.491a3,3,0,0,0-3.34,0,8.85,8.85,0,0,1-1.929.978,4.378,4.378,0,0,1-3.855-.671,3.5,3.5,0,0,0-1.985-.8,3.115,3.115,0,0,0-1.9.559,5.292,5.292,0,0,1-1.941.955,4.7,4.7,0,0,1-3.588-.6,15.429,15.429,0,0,0-1.572-.828,1.81,1.81,0,0,0-.612-.076c-.613-.046-.963-.395-.921-.926.038-.491.448-.787,1.041-.756a4.744,4.744,0,0,1,2.6.939,3.153,3.153,0,0,0,1.859.7,3.064,3.064,0,0,0,1.867-.552,5.328,5.328,0,0,1,1.977-.969,4.612,4.612,0,0,1,3.449.544c.244.148.476.317.718.468a2.929,2.929,0,0,0,3.366,0,6.143,6.143,0,0,1,2.045-1.008,4.605,4.605,0,0,1,3.448.543c.244.148.477.315.718.467a2.924,2.924,0,0,0,3.367,0,6.187,6.187,0,0,1,2.044-1.01,4.6,4.6,0,0,1,3.449.541c.244.148.476.315.718.468a2.919,2.919,0,0,0,3.366,0,5.976,5.976,0,0,1,2.12-1.028c.166-.03.336-.037.5-.072a1.158,1.158,0,0,1,1.314.494Z" transform="translate(-0.005 -207.516)" fill="#fff"/>
    <path id="Trazado_1133" data-name="Trazado 1133" d="M213.589,183.111a6.523,6.523,0,0,0-2.4,1.111,1.739,1.739,0,0,1-2.328-.012,6.123,6.123,0,0,0-3.586-1.217,5.8,5.8,0,0,0-3.368,1.03c-.118.081-.237.159-.356.238a1.719,1.719,0,0,1-2.2,0,5.857,5.857,0,0,0-2.912-1.21,13.792,13.792,0,0,0-2.266.063c.084-.054.164-.113.251-.16q5.511-2.99,11.018-5.988a1.137,1.137,0,0,0,.475-.558q1.557-4.192,3.072-8.4a3.2,3.2,0,0,1,.96-1.388c2.346-2,4.678-4.013,7.022-6.014a2.211,2.211,0,1,1,2.935,3.307c-.983.89-2.007,1.735-3.013,2.6-1.194,1.025-2.393,2.044-3.578,3.078a1.358,1.358,0,0,0-.359.531c-.831,2.236-1.646,4.478-2.474,6.715a.669.669,0,0,0,.048.616c.955,1.742,1.894,3.492,2.838,5.24C213.438,182.813,213.5,182.938,213.589,183.111Z" transform="translate(-76.618 0)" fill="#fff"/>
    <path id="Trazado_1134" data-name="Trazado 1134" d="M373.695,273.826a4.429,4.429,0,0,1,4.419,4.6,4.448,4.448,0,1,1-4.419-4.6Z" transform="translate(-233.414 -101.927)" fill="#fff"/>
  </g>
</svg>
