<svg xmlns="http://www.w3.org/2000/svg" width="40.426" height="40.409" viewBox="0 0 40.426 40.409">
  <g id="Grupo_653" data-name="Grupo 653" transform="translate(-126.278 -174.465)">
    <path id="Trazado_1153" data-name="Trazado 1153" d="M166.7,202.73c-.072.073-.133.189-.218.211a1.126,1.126,0,0,1-.621.063c-.153-.061-.252-.3-.335-.479a.9.9,0,0,1-.01-.351q0-12.4,0-24.79a2.837,2.837,0,0,0-.083-.739,1.3,1.3,0,0,0-1.151-.931c-.183-.015-.368-.014-.552-.014H129.269a4.984,4.984,0,0,0-.63.025,1.317,1.317,0,0,0-1.1,1.131,5.435,5.435,0,0,0-.016.552q-.03,12.435-.058,24.869a2.191,2.191,0,0,1,0,.276.591.591,0,0,1-1.175.006,2.347,2.347,0,0,1,0-.315q.008-12.435.016-24.869a2.612,2.612,0,0,1,2.215-2.859c.022-.006.039-.033.058-.05h35.844a2.714,2.714,0,0,1,1.648.91,10.273,10.273,0,0,1,.642,1.143Z" transform="translate(0 0)" fill="#fff"/>
    <path id="Trazado_1154" data-name="Trazado 1154" d="M163.14,218.485h-2.768l.333,2.9c.313,0,.612,0,.912,0,.465.009.722.221.731.594.009.4-.242.621-.738.624-1.368.006-2.737-.006-4.1.011a1.142,1.142,0,0,0-.609.2c-1.116.79-2.219,1.6-3.32,2.407a.7.7,0,0,1-.763.153c-.313-.147-.34-.422-.34-.73q.007-11.308,0-22.615a1.111,1.111,0,0,1,1.266-1.247h32.364a1.11,1.11,0,0,1,1.266,1.247q0,11.308,0,22.615c0,.308-.027.583-.341.73a.7.7,0,0,1-.762-.154c-1.1-.81-2.205-1.617-3.321-2.406a1.142,1.142,0,0,0-.609-.2c-1.355-.017-2.71-.006-4.065-.01-.5,0-.743-.183-.775-.546-.033-.388.213-.647.649-.672.171-.01.342,0,.513,0h.477l.335-2.882h-2.766c-.052.815-.108,1.636-.155,2.457-.017.295-.138.547-.427.582a.977.977,0,0,1-.624-.186c-.1-.074-.134-.306-.13-.466.016-.683.058-1.366.089-2.049,0-.1,0-.207,0-.34H172.7c0,.208.008.425,0,.64a.611.611,0,0,1-.6.646.619.619,0,0,1-.6-.656c-.008-.206,0-.413,0-.639h-3.167c0,.3,0,.6,0,.9,0,.548-.215.843-.609.841s-.588-.278-.59-.85c0-.286,0-.572,0-.883h-2.772c.02.449.039.888.059,1.328.017.381.047.762.05,1.143a.593.593,0,0,1-.569.63.612.612,0,0,1-.612-.6C163.241,220.172,163.194,219.346,163.14,218.485Zm-9.423-11.835-.031.005v16.988c.807-.587,1.563-1.151,2.337-1.688a.512.512,0,0,0,.242-.589c-.154-.825-.3-1.652-.44-2.479q-.728-4.226-1.453-8.452Q154.047,208.542,153.717,206.65Zm32.453.021-.043-.01q-.209,1.217-.418,2.434-.729,4.226-1.459,8.452c-.221,1.279-.449,2.558-.661,3.838-.023.137-.013.358.072.423.811.617,1.641,1.208,2.509,1.839Zm-22.757-4.651.156,2.852h3.542V202.02Zm9.314,2.858h3.552l.153-2.85h-3.706Zm-10.53-2.849h-3.719l.332,2.841h3.556Zm15.453-.013-.162,2.85h3.555l.326-2.85Zm-10.537,7v-2.863H163.65l.16,2.863Zm9.083-2.869h-3.463v2.86h3.311C176.095,208.044,176.145,207.106,176.2,206.147Zm-16.91,2.864H162.6l-.172-2.859h-3.48Zm21.612-2.864h-3.484l-.165,2.864h3.316Zm-5.09,6.994.151-2.874h-3.227v2.874Zm-8.688-2.882h-3.232l.158,2.87h3.073Zm-4.446.02h-3.246l.333,2.856h3.081Zm5.682,2.855h3.126v-2.873h-3.126Zm11.736.009.332-2.888h-3.245c-.056.969-.111,1.919-.168,2.888Zm-11.723,1.212v2.887h3.113v-2.887ZM168.353,209h3.129v-2.854h-3.129Zm3.138-6.974H168.37v2.836h3.121Zm-4.369,12.34h-3c.055.978.109,1.927.162,2.868h2.839Zm5.6,2.883h2.842l.153-2.881h-2.995Zm9.528-12.357c.949,0,1.864,0,2.779-.009.072,0,.188-.127.2-.21.163-.873.31-1.749.47-2.675-1.008,0-1.989,0-2.969.01-.063,0-.166.146-.177.234C182.453,203.1,182.36,203.963,182.255,204.9Zm-24.662-.022c-.074-.636-.159-1.243-.212-1.853-.088-1.023-.079-1.024-1.1-1.024H154.14l.5,2.877Zm5.315,9.492H159.9l.335,2.878h2.845Zm14.034-.01-.164,2.882h2.844l.33-2.882Zm5.168-8.216-.329,2.894c.863,0,1.7.005,2.538-.009.073,0,.194-.125.209-.207.164-.884.312-1.772.467-2.678Zm-24.037,2.895-.332-2.889h-2.884c.156.9.3,1.782.468,2.657a.34.34,0,0,0,.233.222C156.381,209.042,157.206,209.035,158.071,209.035Zm25.717,4.1.494-2.87h-2.648l-.326,2.87Zm-25.243.01-.333-2.883h-2.648l.5,2.883Zm-2.274,1.215.5,2.882h2.246l-.332-2.882Zm24.893,0-.327,2.875h2.246l.494-2.875Zm-24.185,4.109.5,2.88h2.008c-.1-.894-.192-1.754-.3-2.611-.013-.1-.151-.254-.235-.257C158.3,218.458,157.662,218.468,156.979,218.468Zm25.393,2.894.494-2.894c-.683,0-1.325-.007-1.967.008a.305.305,0,0,0-.227.185c-.113.893-.206,1.787-.306,2.7Z" transform="translate(-23.432 -23.536)" fill="#fff"/>
    <path id="Trazado_1155" data-name="Trazado 1155" d="M251.57,398.075a8.869,8.869,0,1,1-8.68-8.894A9.146,9.146,0,0,1,251.57,398.075Zm-8.255-4.518c0,.263.019.528-.005.789a.609.609,0,0,0,.3.619c.7.487,1.392.991,2.075,1.5a.482.482,0,0,0,.571.054c.447-.219.913-.4,1.355-.631a.764.764,0,0,0,.348-.373c.236-.653.452-1.314.642-1.982a.6.6,0,0,0-.105-.475,7.8,7.8,0,0,0-2.437-1.9.885.885,0,0,0-1.191.1,2.732,2.732,0,0,1-.635.465A1.476,1.476,0,0,0,243.315,393.557Zm-1.226,0c0-.316.017-.633-.009-.947a.54.54,0,0,0-.183-.349c-.553-.423-1.115-.837-1.691-1.227a.568.568,0,0,0-.457-.038,7.276,7.276,0,0,0-2.9,2.118.387.387,0,0,0-.085.3c.239.776.5,1.547.749,2.32.543.258,1.092.506,1.628.78a.5.5,0,0,0,.6-.07,12.391,12.391,0,0,1,1.406-1.014A1.536,1.536,0,0,0,242.089,393.56Zm-4.479,8.734a1.838,1.838,0,0,0,2.181-1.029c.029-.044.084-.077.1-.123a1.027,1.027,0,0,0,.079-.454c-.127-.48-.293-.95-.448-1.422a3.989,3.989,0,0,0-.516-1.423,4.326,4.326,0,0,0-1.386-.7.963.963,0,0,0-.286-.126.69.69,0,0,0-.415.043c-.564.384-1.119.782-1.656,1.2a.6.6,0,0,0-.193.448,8.357,8.357,0,0,0,.772,2.787c.267.586.6.951,1.3.8A2.3,2.3,0,0,1,237.61,402.294Zm10.166,0c.328,0,.658-.02.985.006a.5.5,0,0,0,.526-.307,7.687,7.687,0,0,0,1.053-3.3.6.6,0,0,0-.208-.441c-.5-.4-1.041-.755-1.548-1.15a.487.487,0,0,0-.6-.049c-.42.213-.851.408-1.289.582a.7.7,0,0,0-.443.494c-.247.8-.5,1.6-.781,2.388a.743.743,0,0,0,.145.774C246.156,402.045,246.763,402.584,247.776,402.294Zm-5.074,3.473c.577-.078,1.147-.156,1.717-.232a.461.461,0,0,0,.426-.378,12.708,12.708,0,0,1,.562-1.713c.236-.527-.145-.75-.4-1.022s-.383-.746-.883-.75H244a10.5,10.5,0,0,1-1.573-.014,2.154,2.154,0,0,0-2.354,1.107.575.575,0,0,0-.109.563c.214.6.416,1.213.594,1.828a.462.462,0,0,0,.425.378C241.555,405.61,242.125,405.689,242.7,405.767Zm0-5.283c.42,0,.841-.01,1.261,0,.209.007.294-.069.355-.267.246-.8.5-1.6.777-2.39a.311.311,0,0,0-.139-.422c-.673-.48-1.345-.963-2.008-1.458a.34.34,0,0,0-.481-.005c-.662.5-1.334.978-2.006,1.46a.31.31,0,0,0-.15.419q.415,1.186.776,2.391a.328.328,0,0,0,.393.272C241.885,400.473,242.292,400.484,242.7,400.484Zm1.122-9.949-.035-.081H241.6a5.645,5.645,0,0,0,.943.774.3.3,0,0,0,.266.03C243.156,391.028,243.486,390.778,243.821,390.534Zm-8.726,6.2.1.074c.328-.237.661-.468.979-.717a.3.3,0,0,0,.091-.253c-.112-.39-.247-.774-.375-1.16l-.116-.011Zm14.537-2.064-.122,0c-.12.373-.247.743-.355,1.119a.31.31,0,0,0,.041.265c.328.261.672.5,1.011.747l.1-.072Zm-10.562,10.2.1-.092c-.121-.382-.238-.766-.369-1.145a.233.233,0,0,0-.16-.137c-.422-.012-.844-.006-1.266-.006l-.037.118Zm9-1.27-.052-.113c-.4,0-.8-.007-1.2.006a.268.268,0,0,0-.2.13c-.137.387-.255.782-.379,1.174l.1.078Z" transform="translate(-96.21 -192.068)" fill="#fff"/>
  </g>
</svg>
