<svg xmlns="http://www.w3.org/2000/svg" width="40.094" height="46.469" viewBox="0 0 40.094 46.469">
  <g id="Grupo_651" data-name="Grupo 651" transform="translate(-365.989 -389.577)">
    <path id="Trazado_1139" data-name="Trazado 1139" d="M383.931,454.867c-.109-.123-.213-.252-.329-.368q-3.832-3.836-7.671-7.665a.962.962,0,0,1-.313-.752c.012-2.087-.012-4.174.011-6.261a3.2,3.2,0,1,0-6.394-.281c-.009.15,0,.3,0,.53-.135-.107-.226-.167-.3-.242-.889-.886-1.783-1.768-2.658-2.668a.875.875,0,0,1-.248-.539q-.034-7.009-.037-14.019c0-.043.013-.087.039-.248l32.518,32.513Z" transform="translate(0 -18.821)" fill="#fff"/>
    <path id="Trazado_1140" data-name="Trazado 1140" d="M400.749,445.147c-.126-.146-.244-.3-.381-.437Q383.4,427.741,366.42,410.78a1.194,1.194,0,0,1-.388-.949c.022-1.27.008-2.54.008-3.81v-.594c.178.17.273.257.364.348q19.537,19.533,39.074,39.069c.095.095.177.2.265.3Z" transform="translate(-0.024 -9.101)" fill="#fff"/>
    <path id="Trazado_1141" data-name="Trazado 1141" d="M377.822,476.019a1.194,1.194,0,0,1-.5-1.084c.009-4.641,0-9.283.007-13.925a1.615,1.615,0,0,1,1.944-1.784,1.551,1.551,0,0,1,1.266,1.5c.006,4.808,0,9.615.008,14.423a.969.969,0,0,1-.549.865Z" transform="translate(-6.509 -39.973)" fill="#fff"/>
    <path id="Trazado_1142" data-name="Trazado 1142" d="M413.842,436.838c.441.445.885.9,1.331,1.343.726.729,1.469,1.44,2.175,2.187a2.384,2.384,0,0,1-.88,3.986,2.1,2.1,0,0,1-2.321-.529q-6.335-6.366-12.711-12.691a2.4,2.4,0,0,1,.038-3.157,2.436,2.436,0,0,1,3.213-.207.453.453,0,0,1,.1.344,3.565,3.565,0,0,0,.618,2.576c1.172,1.742,2.36,3.476,3.451,5.268A3.279,3.279,0,0,0,413.842,436.838Z" transform="translate(-20.025 -21.637)" fill="#fff"/>
    <path id="Trazado_1143" data-name="Trazado 1143" d="M433.344,445.813c1.2-.06,2.317-.121,3.43-.169,1.706-.074,3.411-.151,5.118-.2a1.6,1.6,0,0,1,1.752,1.467c.321,2.5.622,5,.93,7.5.066.539.157,1.077.183,1.618a1.6,1.6,0,0,1-3.179.3q-.427-3.206-.808-6.419c-.111-.941-.31-1.15-1.251-1.121s-1.9.075-2.854.093a.734.734,0,0,1-.482-.153c-.9-.873-1.782-1.765-2.668-2.653A2.093,2.093,0,0,1,433.344,445.813Z" transform="translate(-38.676 -32.076)" fill="#fff"/>
    <path id="Trazado_1144" data-name="Trazado 1144" d="M415.292,414.216a5.65,5.65,0,0,0,3.131.662l-.962,4.171c-.074.323-.169.642-.218.969a2.56,2.56,0,0,0,.414,1.9c.884,1.3,1.752,2.606,2.624,3.912a1.829,1.829,0,0,1,.332,1.538,1.493,1.493,0,0,1-1.1,1.144,1.52,1.52,0,0,1-1.542-.4,2.51,2.51,0,0,1-.36-.463c-1.181-1.788-2.354-3.582-3.539-5.368a1.9,1.9,0,0,1-.3-1.584c.484-2.037.934-4.081,1.4-6.122C415.2,414.471,415.241,414.373,415.292,414.216Z" transform="translate(-27.407 -14.148)" fill="#fff"/>
    <path id="Trazado_1145" data-name="Trazado 1145" d="M414.957,398.716a3.618,3.618,0,0,1,7.237.013,3.618,3.618,0,1,1-7.237-.013Z" transform="translate(-28.118 -3.183)" fill="#fff"/>
    <path id="Trazado_1146" data-name="Trazado 1146" d="M391.972,403.36a3.447,3.447,0,0,1-.585.682.684.684,0,0,1-.875-.118c-.342-.319-.669-.655-1-.986q-3.028-3.027-6.049-6.062a1.228,1.228,0,0,1-.4-.717.921.921,0,0,1,.39-.688,1.33,1.33,0,0,1,.8-.015c.127.02.238.174.344.28q3.431,3.426,6.853,6.859A5.327,5.327,0,0,1,391.972,403.36Z" transform="translate(-9.807 -3.344)" fill="#fff"/>
    <path id="Trazado_1147" data-name="Trazado 1147" d="M397.324,393.651a3.67,3.67,0,0,1-.606.646.7.7,0,0,1-.9-.173c-.476-.463-.942-.937-1.412-1.407-.556-.555-1.115-1.107-1.665-1.667a.808.808,0,0,1-.084-1.237.824.824,0,0,1,1.238.1c1.008,1,2.015,2,3.007,3.016A3.881,3.881,0,0,1,397.324,393.651Z" transform="translate(-15.167)" fill="#fff"/>
  </g>
</svg>
