<svg xmlns="http://www.w3.org/2000/svg" width="47.732" height="35.161" viewBox="0 0 47.732 35.161">
  <g id="Grupo_648" data-name="Grupo 648" transform="translate(-25.249 -31.785)">
    <path id="Trazado_1126" data-name="Trazado 1126" d="M72.981,43.479c-.023.02-.053.036-.066.061a1.5,1.5,0,0,1-2.659.407,28.979,28.979,0,0,0-6.009-4.9,27.7,27.7,0,0,0-11.023-3.964,28.572,28.572,0,0,0-25.165,8.8,1.721,1.721,0,0,1-1.458.672,1.5,1.5,0,0,1-.957-2.493c.538-.58,1.091-1.15,1.67-1.689a30.524,30.524,0,0,1,15.827-8.034c11.387-1.958,21.174,1.252,29.273,9.522a6.686,6.686,0,0,1,.567.776Z" fill="#fff"/>
    <path id="Trazado_1127" data-name="Trazado 1127" d="M50.457,41.337A21.68,21.68,0,0,1,65.48,48.455a2.83,2.83,0,0,1,.683,1.124,1.383,1.383,0,0,1-.759,1.594,1.536,1.536,0,0,1-1.76-.293c-.846-.8-1.649-1.653-2.554-2.377a18.4,18.4,0,0,0-9.659-4.01,19.075,19.075,0,0,0-16.3,5.827c-.186.187-.359.388-.549.571a1.512,1.512,0,0,1-2.1.028,1.484,1.484,0,0,1-.087-2.062,21.64,21.64,0,0,1,5.569-4.541C41.425,42.331,45.174,41.336,50.457,41.337Z" fill="#fff"/>
    <path id="Trazado_1128" data-name="Trazado 1128" d="M49.122,50.894a12.688,12.688,0,0,1,9.915,4.7,1.5,1.5,0,1,1-2.313,1.911,9.453,9.453,0,0,0-5.979-3.471,9.576,9.576,0,0,0-9.124,3.368,1.606,1.606,0,0,1-1.711.657,1.494,1.494,0,0,1-.736-2.423A12.69,12.69,0,0,1,44.921,51.6,12.4,12.4,0,0,1,49.122,50.894Z" fill="#fff"/>
    <path id="Trazado_1129" data-name="Trazado 1129" d="M52.371,63.708a3.249,3.249,0,1,1-3.212-3.258A3.292,3.292,0,0,1,52.371,63.708Z" fill="#fff"/>
  </g>
</svg>
