<svg xmlns="http://www.w3.org/2000/svg" width="3883.025" height="3259.255" viewBox="0 0 3883.025 3259.255">
  <g id="Componente_12_1" data-name="Componente 12 – 1" transform="translate(0.07 0.645)">
    <path id="Trazado_295" data-name="Trazado 295" d="M283.612,1563.634c-19.865-43.93-114.133-264.367-17.388-508.541,89.3-225.382,281.358-319.6,356.416-356.416,228.167-111.927,443.186-79.041,552.006-60.85,304.13,50.844,503.982,223.109,586.78,304.257" transform="translate(886.802 1385.933)" fill="none" stroke="#fff" stroke-miterlimit="10" stroke-width="1" stroke-dasharray="5"/>
    <path id="Trazado_294" data-name="Trazado 294" d="M2239.529,282.959C2222.978,263.351,2105.8,129.122,1918.2,131.975c-39.309.6-150.23.522-240.026,85.171-70.7,66.647-111.406,169.594-96.786,263.255,14.691,94.109,72.306,96.023,96.786,205.186,22.545,100.551-6.61,186.916-23.229,236.155-43.56,129.04-124.495,204.474-147.114,224.538-22.066,19.579-104.345,89.127-224.541,116.144-255.219,57.366-371.678-146.643-534.254-89.042-160.3,56.793-115.673,279.435-290.354,441.339-109.909,101.87-295.974,169.81-623.3,123.885" transform="translate(164.611 104.566)" fill="none" stroke="#fff" stroke-miterlimit="10" stroke-width="1" stroke-dasharray="5"/>
    <path id="Trazado_293" data-name="Trazado 293" d="M-82.974,72.459C98.109,32.842,352.705,9.291,540.757,149.316c180.2,134.178,166.862,319.939,319.257,514.359,237.684,303.232,641.028,341.679,798.141,360.64,452.426,54.6,798.185-118.937,922.3-189.189" transform="translate(102.779 -41.972)" fill="none" stroke="#fff" stroke-miterlimit="10" stroke-width="1" stroke-dasharray="5"/>
    <path id="Trazado_1125" data-name="Trazado 1125" d="M2520.777,300.627c-18.487-21.9-149.368-171.833-358.917-168.647-43.908.668-167.805.583-268.106,95.135-78.969,74.443-124.438,189.434-108.108,294.052,16.41,105.118,80.765,107.256,108.108,229.189,25.183,112.314-7.383,208.783-25.946,263.782-48.656,144.136-139.059,228.394-164.324,250.806-24.648,21.87-116.552,99.553-250.809,129.731-285.076,64.077-415.158-163.8-596.753-99.458-179.048,63.437-129.205,312.124-324.321,492.968C408.834,1901.972,201,1977.86-164.611,1926.563" transform="translate(3789.249 2312.238) rotate(155)" fill="none" stroke="#fff" stroke-miterlimit="10" stroke-width="1" stroke-dasharray="5"/>
  </g>
</svg>
