<svg xmlns="http://www.w3.org/2000/svg" width="27.821" height="38.486" viewBox="0 0 27.821 38.486">
  <g id="Grupo_650" data-name="Grupo 650" transform="translate(-128.59 -124.548)">
    <path id="Trazado_1135" data-name="Trazado 1135" d="M156.411,143.818q0,8.834-.011,17.668a2.336,2.336,0,0,1-.265,1.053,1.05,1.05,0,0,1-.989.494q-12.651,0-25.3,0a1.22,1.22,0,0,1-1.252-1.341q0-12.027,0-24.055,0-5.806,0-11.613a1.284,1.284,0,0,1,1.465-1.473H154.9c1.045,0,1.508.464,1.508,1.52Q156.412,134.943,156.411,143.818Zm-13.924,14.541a9.235,9.235,0,1,0-9.225-9.234A9.266,9.266,0,0,0,142.487,158.359Zm-3.875-24.567a3.893,3.893,0,1,0,3.9-3.876A3.886,3.886,0,0,0,138.611,133.791Z" fill="#fff"/>
    <path id="Trazado_1136" data-name="Trazado 1136" d="M206.547,292.21a6.759,6.759,0,1,1-6.694-6.743A6.757,6.757,0,0,1,206.547,292.21Zm-6.76,3.89a3.892,3.892,0,1,0-3.877-3.894A3.885,3.885,0,0,0,199.788,296.1Z" transform="translate(-57.299 -143.089)" fill="#fff"/>
    <path id="Trazado_1137" data-name="Trazado 1137" d="M243.979,196.495a1.437,1.437,0,1,1-2.874-.015,1.437,1.437,0,0,1,2.874.015Z" transform="translate(-100.047 -62.697)" fill="#fff"/>
    <path id="Trazado_1138" data-name="Trazado 1138" d="M242.534,336.306a1.475,1.475,0,0,1-1.429-1.439,1.437,1.437,0,1,1,1.429,1.439Z" transform="translate(-100.047 -185.74)" fill="#fff"/>
  </g>
</svg>
