<svg xmlns="http://www.w3.org/2000/svg" width="44.066" height="35.122" viewBox="0 0 44.066 35.122">
  <path id="Trazado_1130" data-name="Trazado 1130" d="M162.141,222.778a3.33,3.33,0,0,1,.985-.513A7.142,7.142,0,0,1,165,222.25c.823.105.958.3,1.047,1.139,1.236.141,2.482.31,3.732.419,2.426.212,4.852.466,7.284.563,3.279.13,6.564.168,9.846.165,1.991,0,3.981-.157,5.972-.241.467-.02.755.214.773.614a.661.661,0,0,1-.7.7,128.9,128.9,0,0,1-13.027.2c-2.305-.093-4.611-.208-6.911-.386-2.112-.164-4.216-.427-6.324-.645-.211-.022-.423-.037-.656-.057v1.224a136.766,136.766,0,0,0,36.275,0v-1.227c-1.275.139-2.524.281-3.776.41q-1.282.132-2.567.231c-.5.038-.807-.195-.833-.592s.286-.651.8-.7c2.079-.219,4.156-.45,6.234-.678a.934.934,0,0,0,.119-.028c.138-.848.284-1.05,1.159-1.136a8.52,8.52,0,0,1,1.965.064c.613.083.794.381.794,1.019q0,11.337,0,22.674a1.829,1.829,0,0,1-.01.386.646.646,0,0,1-1.269-.007,2.187,2.187,0,0,1-.01-.429q0-10.928,0-21.856v-.588c-.38,0-.733-.015-1.083.012-.075.006-.153.155-.2.251-.029.057-.006.141-.006.212V255.94h1.292c0-.194,0-.351,0-.507q0-3.205,0-6.411c0-.539.227-.84.632-.849s.657.3.657.867q0,3.593,0,7.185c0,.541-.14.764-.658.91a4.716,4.716,0,0,1-2.543.006c-.532-.144-.67-.372-.67-.945q0-6.454,0-12.907v-.524a139.215,139.215,0,0,1-36.318,0v.535q0,6.432,0,12.864c0,.633-.184.949-.8,1.012a11.812,11.812,0,0,1-2.258,0c-.284-.026-.544-.315-.814-.484V237.666c.381-.447.755-.561,1.042-.242a1.175,1.175,0,0,1,.238.731q.019,8.623.01,17.246v.552H164.7v-32.44h-1.268v.558q0,5.548,0,11.1c0,.325-.052.608-.372.754-.4.183-.677-.032-.922-.319Zm5.839,18.91v-14.17l-1.942-.225v14.155Zm34.322-.239V227.29l-1.935.238V241.69Zm-14.962-6.576v-2.515h-2.48v2.515Zm-6.349-2.522v2.518h2.486V232.35Zm3.881,7.736v2.523h2.471v-2.523Zm-3.886-9.095h2.479v-2.513h-2.479Zm3.875-.006h2.477v-2.5h-2.477Zm-1.4,11.623V240.1h-2.479v2.513Zm1.405-6.383v2.513h2.474v-2.513Zm-1.406,2.51v-2.513h-2.479v2.513Zm7.768-10.453-2.5.117v2.561l2.5-.12Zm-11.626.111-2.48-.116v2.564l2.48.109Zm0,14.175v-2.555l-2.488-.114v2.557Zm0-7.742v-2.559l-2.488-.113v2.557Zm11.619-2.668-2.489.113v2.56l2.489-.119Zm-2.491,6.548,2.48-.12v-2.556l-2.48.115Zm-9.119-2.61h-2.488v2.536h2.488Zm11.609,3.808-2.489.113v2.559l2.489-.12Zm-15.5-9.145v-2.551l-2.474-.185v2.559Zm20.759-2.845v2.549c.785-.071,1.538-.133,2.289-.215a.3.3,0,0,0,.206-.2c.015-.782.009-1.565.009-2.371Zm-24.623,0-2.515-.246v1.767c0,.762,0,.762.768.853.071.009.141.026.212.033.506.045,1.012.088,1.534.133Zm3.864,6.717v-2.551l-2.473-.184v2.559Zm20.756-.3c.794-.072,1.559-.137,2.323-.218a.266.266,0,0,0,.176-.187c.012-.783.008-1.566.008-2.383l-2.507.249Zm-27.132-2.795c0,.816-.006,1.586.008,2.355a.3.3,0,0,0,.187.221c.762.082,1.527.143,2.317.212v-2.536Zm23.273-3.334v2.554l2.459-.175v-2.557Zm3.863,7.457v2.545c.785-.071,1.537-.133,2.288-.215a.3.3,0,0,0,.206-.2c.015-.782.009-1.564.009-2.373Zm-3.874,2.842,2.481-.176v-2.559l-2.481.189Zm-20.751-.3v-2.54l-2.511-.242c0,.813-.007,1.57.01,2.326a.332.332,0,0,0,.208.244C170.319,238.075,171.072,238.134,171.862,238.2Zm20.763-6.119v2.549l2.473-.176V231.9Zm-20.754,7.451-2.521-.245v1.862c0,.683,0,.682.7.746.1.009.2.033.3.042.5.044,1.009.085,1.527.129Zm24.61,2.546c.795-.072,1.535-.132,2.274-.215a.334.334,0,0,0,.228-.227c.017-.769.01-1.538.01-2.346l-2.512.246Zm-20.752-2.255-2.48-.183V242.2l2.48.175Zm0-1.322v-2.549l-2.48-.179v2.551Zm16.874,3.872,2.488-.173v-2.558l-2.488.191Z" transform="translate(-162.141 -222.192)" fill="#fff"/>
</svg>
