<svg xmlns="http://www.w3.org/2000/svg" width="761.646" height="615.853" viewBox="0 0 761.646 615.853">
  <g id="Componente_11_1" data-name="Componente 11 – 1" transform="translate(0 0.25)">
    <path id="Trazado_1113" data-name="Trazado 1113" d="M3198.164,1154.019a89.6,89.6,0,0,1,19.542,22.146c.22-.308.439-.615.661-.923,5.674-7.9,12.3-16.671,19.814-25.9a89.577,89.577,0,0,1-22.193-20.481,88.348,88.348,0,0,1-14.25-29.38,88.35,88.35,0,0,1,24.322,21.787,89.6,89.6,0,0,1,13.428,26.475c6.26-7.63,13.125-15.558,20.564-23.571a89.65,89.65,0,0,1-16.077-25.322,88.351,88.351,0,0,1-6.264-32.047,88.339,88.339,0,0,1,17.942,27.283,89.506,89.506,0,0,1,6.172,28.181c7.47-7.96,15.509-15.983,24.081-23.859a89.654,89.654,0,0,1-12.044-27.5,88.355,88.355,0,0,1-1.3-32.628,88.342,88.342,0,0,1,13.571,29.7,89.512,89.512,0,0,1,1.824,28.562c5.815-5.272,11.868-10.47,18.159-15.529a89.651,89.651,0,0,1-.74-29.942,88.358,88.358,0,0,1,11.126-30.7,84.241,84.241,0,0,1-6.75,57.756q6.676-5.236,13.687-10.231a84.245,84.245,0,0,1,48.2-32.6,84.228,84.228,0,0,1-45.49,35.988q-7.256,5.149-14.149,10.588a89.488,89.488,0,0,1,28.2,4.316,88.338,88.338,0,0,1,28.4,16.116,88.356,88.356,0,0,1-32.388-4.151,89.618,89.618,0,0,1-26.468-14.5c-6.333,5.061-12.422,10.27-18.273,15.555a89.589,89.589,0,0,1,26.906,12.6,88.335,88.335,0,0,1,22.534,23.632,88.348,88.348,0,0,1-29.809-13.329,89.591,89.591,0,0,1-21.155-21.533c-8.833,8.058-17.1,16.284-24.766,24.446a89.6,89.6,0,0,1,27.758,10.151,88.344,88.344,0,0,1,24.533,21.55,88.342,88.342,0,0,1-30.87-10.645,89.646,89.646,0,0,1-22.891-19.48c-7.525,8.082-14.462,16.082-20.78,23.778a89.611,89.611,0,0,1,27.947,9.12,88.343,88.343,0,0,1,25.3,20.65,88.358,88.358,0,0,1-31.234-9.523,89.6,89.6,0,0,1-23.442-18.492c-7.412,9.108-13.949,17.758-19.552,25.558q-.42.585-.834,1.167a89.247,89.247,0,0,1,28.923,13.127,88.348,88.348,0,0,1,22.534,23.632,88.344,88.344,0,0,1-29.809-13.329,89.239,89.239,0,0,1-22.05-22.867c-22.854,32.087-35.081,56.591-35.2,56.839l-3.885-1.925c.122-.248,12.212-24.486,34.786-56.343a89.593,89.593,0,0,1-26.092-14.107,88.362,88.362,0,0,1-21.145-24.883A88.354,88.354,0,0,1,3198.164,1154.019Z" transform="translate(-2609.99 -649.351)" fill="#e3b130"/>
    <path id="Trazado_1114" data-name="Trazado 1114" d="M2921,1036.084a143.346,143.346,0,0,1,40.522,24.3c.186-.575.371-1.149.56-1.728,4.822-14.8,10.676-31.373,17.661-49.087a143.3,143.3,0,0,1-43.755-20.475,141.317,141.317,0,0,1-35.957-37.889,141.33,141.33,0,0,1,47.634,21.435,143.338,143.338,0,0,1,33.3,33.858c5.848-14.665,12.474-30.076,19.934-45.9a143.4,143.4,0,0,1-36.776-30.817,141.314,141.314,0,0,1-25.073-45.824,141.33,141.33,0,0,1,40.569,32.9,143.21,143.21,0,0,1,23.059,39.974c7.532-15.754,15.9-31.879,25.157-48.038a143.417,143.417,0,0,1-31.684-36.1,141.333,141.333,0,0,1-17.79-49.112,141.332,141.332,0,0,1,35.076,38.705,143.218,143.218,0,0,1,16.616,42.662c6.311-10.855,13.023-21.712,20.162-32.471A143.389,143.389,0,0,1,3034.58,827.2,141.323,141.323,0,0,1,3036.674,775a134.757,134.757,0,0,1,17.685,91.323q7.642-11.218,15.91-22.228a134.77,134.77,0,0,1,57.7-73.043,134.734,134.734,0,0,1-51.92,76.9q-8.57,11.365-16.443,23a143.184,143.184,0,0,1,45.081-7.08,141.324,141.324,0,0,1,51.1,10.813,141.321,141.321,0,0,1-51.388,9.361,143.331,143.331,0,0,1-47.375-9.287c-7.2,10.783-13.964,21.674-20.325,32.566a143.349,143.349,0,0,1,47.126,6.183,141.325,141.325,0,0,1,45.8,25.113,141.331,141.331,0,0,1-51.9-5.881,143.327,143.327,0,0,1-42.681-22.581c-9.565,16.563-18.18,33.108-25.917,49.265a143.306,143.306,0,0,1,47.236,2.03,141.325,141.325,0,0,1,47.84,20.971,141.325,141.325,0,0,1-52.219-1.275,143.4,143.4,0,0,1-44.335-18.612c-7.557,15.966-14.258,31.524-20.162,46.318a143.347,143.347,0,0,1,47.026.366,141.324,141.324,0,0,1,48.566,19.231,141.33,141.33,0,0,1-52.231.609,143.336,143.336,0,0,1-44.7-16.836c-6.887,17.474-12.664,33.829-17.427,48.436-.238.731-.473,1.457-.708,2.183a142.762,142.762,0,0,1,50.453,6,141.335,141.335,0,0,1,45.8,25.113,141.328,141.328,0,0,1-51.9-5.881,142.752,142.752,0,0,1-44.693-24.182c-19.3,59.989-26.072,103.27-26.139,103.708l-6.855-1.053c.068-.437,6.757-43.246,25.742-102.749a143.318,143.318,0,0,1-46.613-8.868,141.337,141.337,0,0,1-44.29-27.694A141.328,141.328,0,0,1,2921,1036.084Z" transform="translate(-2514.8 -570.15)" fill="#e3b130"/>
    <g id="Grupo_585" data-name="Grupo 585" transform="translate(152.235 524.64)">
      <path id="Trazado_944" data-name="Trazado 944" d="M3160.865,1304.339a69.112,69.112,0,0,1,66.436,50.085H3094.429A69.111,69.111,0,0,1,3160.865,1304.339Z" transform="translate(-2739.176 -1263.711)" fill="none" stroke="#fff" stroke-width="0.5"/>
      <path id="Trazado_945" data-name="Trazado 945" d="M2671.643,1269.613a101.806,101.806,0,0,1,97.866,73.78H2573.777A101.807,101.807,0,0,1,2671.643,1269.613Z" transform="translate(-2573.777 -1252.68)" fill="none" stroke="#fff" stroke-width="0.5"/>
      <path id="Trazado_946" data-name="Trazado 946" d="M3026.8,1335.509c-15.006-51.927-74.475-90.713-145.559-90.713s-130.552,38.785-145.559,90.713Z" transform="translate(-2625.21 -1244.796)" fill="none" stroke="#fff" stroke-width="0.5"/>
    </g>
    <g id="Grupo_586" data-name="Grupo 586" transform="translate(0 228.47)">
      <path id="Trazado_958" data-name="Trazado 958" d="M2508.591,851.005a45.907,45.907,0,0,1,44.129,33.269h-88.259A45.907,45.907,0,0,1,2508.591,851.005Z" transform="translate(-2228.486 -824.018)" fill="#fff8ed"/>
      <path id="Trazado_959" data-name="Trazado 959" d="M2183.627,827.938a67.625,67.625,0,0,1,65.007,49.009H2118.62A67.624,67.624,0,0,1,2183.627,827.938Z" transform="translate(-2118.62 -816.691)" fill="#fff8ed"/>
      <path id="Trazado_960" data-name="Trazado 960" d="M2419.538,871.71c-9.968-34.493-49.47-60.256-96.687-60.256s-86.719,25.763-96.687,60.256Z" transform="translate(-2152.784 -811.454)" fill="#fff8ed"/>
    </g>
    <path id="Trazado_991" data-name="Trazado 991" d="M2793.557,1025.025c0,153.826-44.732,195.156-99.912,195.156s-99.912-41.33-99.912-195.156,44.732-361.9,99.912-361.9S2793.557,871.2,2793.557,1025.025Z" transform="translate(-2441.499 -663.13)" fill="none" stroke="#e3b130" stroke-width="0.5"/>
    <path id="Trazado_993" data-name="Trazado 993" d="M2694.651,1365.937h15.33s.438-24.091,3.5-28.47,9.636-7.885,9.636-7.885l-3.942-6.57-7.446,5.694s-1.171-10.454,8.465-21.842l-13.393.916s-5.368,10.851-7.009,19.612l-3.033-20.528-7.169-.715S2696.841,1336.59,2694.651,1365.937Z" transform="translate(-2454.869 -750.584)" fill="none" stroke="#e3b130" stroke-width="0.5"/>
    <g id="Grupo_589" data-name="Grupo 589" transform="translate(277.261 151.683)">
      <path id="Trazado_997" data-name="Trazado 997" d="M2684.57,714.984A18.649,18.649,0,0,1,2702.5,728.5h-35.854A18.648,18.648,0,0,1,2684.57,714.984Z" transform="translate(-2570.78 -704.02)" fill="#fff"/>
      <path id="Trazado_998" data-name="Trazado 998" d="M2552.557,705.613a27.472,27.472,0,0,1,26.408,19.909h-52.817A27.473,27.473,0,0,1,2552.557,705.613Z" transform="translate(-2526.148 -701.043)" fill="#fff"/>
      <path id="Trazado_999" data-name="Trazado 999" d="M2648.393,723.394c-4.05-14.012-20.1-24.478-39.278-24.478s-35.229,10.466-39.278,24.478Z" transform="translate(-2540.027 -698.916)" fill="#fff"/>
    </g>
  </g>
</svg>
